<svg xmlns="http://www.w3.org/2000/svg" width="86.355" height="95.303" viewBox="0 0 86.355 95.303">
    <g id="body_pic1" transform="translate(-607.363 -1212.936)">
        <path id="路径_412" data-name="路径 412" d="M652.687,1286.292c-9.282.4-11.4,20.287-19.624,21.348s-21.878-8.221-24.662-45.215,6.047-42.744,10.872-42.827c10.254-.177,12.287,7.646,27.226,7.071,9.54-.366,19.712-16.529,32.088-12.64s15.065,21.4,14.585,41.988c-.221,9.457-1,20.491-3.23,29.52" fill="none" stroke="#e48013" stroke-linecap="round" stroke-miterlimit="10" stroke-width="1"/>
        <path id="路径_413" data-name="路径 413" d="M646.754,1232.386c7.368-.284,15.225-12.768,24.784-9.764s11.637,16.532,11.266,32.432c-.346,14.809-2.458,34.621-12.119,36.391-8.648,1.584-11.983-13.314-19.152-13.007s-8.808,15.67-15.157,16.489-16.9-6.35-19.049-34.923,4.67-33.016,8.4-33.08C633.645,1226.787,635.215,1232.83,646.754,1232.386Z" fill="#ffb15b" opacity="0.5"/>
    </g>
</svg>
