<svg xmlns="http://www.w3.org/2000/svg" width="62.284" height="78.074" viewBox="0 0 62.284 78.074">
    <g id="body_pic3" transform="translate(-50.392 -427.855)">
        <path id="路径_128" data-name="路径 128" d="M51.227,442.1c1.019,5.838,9.727,54.315,27.873,58.51s31.427-29.57,32.55-42.782,1.871-16.772-9.354-19.5-13.156-2.936-15.4-4.335-8.729-1.887-13.406-1.327-9.727-.909-16.15.488S50.449,437.63,51.227,442.1Z" transform="translate(0 4.439)" fill="#ffb15b" opacity="0.5"/>
        <path id="路径_127" data-name="路径 127" d="M51.227,446.536c1.019,5.838,9.727,54.315,27.873,58.51s31.427-29.57,32.55-42.782,1.871-25.166-9.354-27.891-13.156-2.936-15.4-4.335-8.729-1.887-13.406-1.327-9.727-.908-16.15.488S50.449,442.07,51.227,446.536Z" transform="translate(0 0)" fill="none" stroke="#e48013" stroke-miterlimit="10" stroke-width="1"/>
    </g>
</svg>
