<svg xmlns="http://www.w3.org/2000/svg" width="81.005" height="89.393" viewBox="0 0 81.005 89.393">
    <g id="body_pic4" transform="translate(-976.494 -1393.51)">
        <path id="路径_414" data-name="路径 414" d="M311.411,1137.839c8.942-.343,18.478-15.493,30.077-11.848s14.122,20.061,13.671,39.357c-.419,17.971-2.982,42.014-14.707,44.161-10.494,1.922-14.541-16.157-23.241-15.784s-10.688,19.016-18.394,20.01-20.506-7.706-23.116-42.381,5.668-40.065,10.192-40.143C295.5,1131.045,297.409,1138.378,311.411,1137.839Z" transform="translate(701.797 268.574)" fill="none" stroke="#e48013" stroke-miterlimit="10" stroke-width="1"/>
        <path id="路径_415" data-name="路径 415" d="M338,1152.539c2.46-11.951-8.091-30.187,3.508-26.541s14.122,20.061,13.671,39.357c-.419,17.971-2.982,42.014-14.707,44.161-10.494,1.922-14.541-16.157-23.241-15.784s-10.688,19.016-18.394,20.01-20.506-7.706-23.116-42.381,14.944-18,22.325-12.612C318.08,1173.38,335.751,1163.441,338,1152.539Z" transform="translate(701.781 268.568)" fill="#ffb15b" opacity="0.5"/>
        <path id="路径_416" data-name="路径 416" d="M279.01,1149.28s.937-13.9,7.655-13.748,13.591,8.436,23.59,6.718a39.1,39.1,0,0,0,22.652-12.03,67.526,67.526,0,0,0,2.188,17.341c2.343,7.967-6.718,15.466-17.654,15.466s-16.715-9.217-24.683-12.185S283.072,1146.311,279.01,1149.28Z" transform="translate(701.559 268.274)" fill="none" stroke="#e48013" stroke-width="1"/>
    </g>
</svg>
