<svg xmlns="http://www.w3.org/2000/svg" width="196.562" height="60.876" viewBox="0 0 196.562 60.876">
    <g id="body_pic2" transform="translate(-1235.224 -1372.852)">
        <path id="路径_403" data-name="路径 403" d="M1267.289,1433.665c5.227-.675,6.575-13.32,12.477-13.573s8.646,12.01,15.765,10.706c7.919-1.45,9.676-17.627,9.971-29.8a532.26,532.26,0,0,0-53.61,6.963C1254.154,1428.941,1262.3,1434.309,1267.289,1433.665Z" fill="#ffb15b" opacity="0.5"/>
        <path id="路径_404" data-name="路径 404" d="M1309.452,1400.7c.056,1.33.138,2.733.249,4.217,1.771,23.521,10.454,29.422,15.681,28.748s6.576-13.32,12.477-13.573,8.646,12.01,15.765,10.706c7.953-1.456,9.691-17.765,9.976-29.956.008-.382.009-.756.015-1.134A495.668,495.668,0,0,0,1309.452,1400.7Z" fill="#ffb15b" opacity="0.5"/>
        <path id="路径_405" data-name="路径 405" d="M1367.314,1404.917c1.771,23.521,10.454,29.422,15.681,28.748s6.576-13.32,12.477-13.573,8.646,12.01,15.765,10.706c6.876-1.259,9.1-13.618,9.767-24.821a388.789,388.789,0,0,0-53.966-6.124C1367.091,1401.433,1367.178,1403.11,1367.314,1404.917Z" fill="#ffb15b" opacity="0.52"/>
        <path id="路径_406" data-name="路径 406" d="M1275.832,1381.683c6.065-.233,12.533-10.51,20.4-8.037s9.579,13.608,9.274,26.7c-.285,12.191-2.023,28.5-9.976,29.956-7.119,1.3-9.864-10.959-15.765-10.706s-7.25,12.9-12.477,13.573-13.91-5.227-15.681-28.748,3.845-27.177,6.913-27.23C1265.041,1377.074,1266.333,1382.048,1275.832,1381.683Z" fill="none" stroke="#e48013" stroke-miterlimit="10" stroke-width="1"/>
        <path id="路径_407" data-name="路径 407" d="M1333.925,1381.683c6.065-.233,12.533-10.51,20.4-8.037s9.579,13.608,9.274,26.7c-.285,12.191-2.023,28.5-9.976,29.956-7.119,1.3-9.864-10.959-15.765-10.706s-7.25,12.9-12.477,13.573-13.91-5.227-15.681-28.748,3.845-27.177,6.913-27.23C1323.134,1377.074,1324.426,1382.048,1333.925,1381.683Z" fill="none" stroke="#e48013" stroke-miterlimit="10" stroke-width="1"/>
        <path id="路径_408" data-name="路径 408" d="M1391.538,1381.683c6.065-.233,12.533-10.51,20.4-8.037s9.579,13.608,9.274,26.7c-.285,12.191-2.023,28.5-9.976,29.956-7.119,1.3-9.864-10.959-15.765-10.706s-7.25,12.9-12.477,13.573-13.91-5.227-15.681-28.748,3.845-27.177,6.913-27.23C1380.747,1377.074,1382.04,1382.048,1391.538,1381.683Z" fill="none" stroke="#e48013" stroke-miterlimit="10" stroke-width="1"/>
        <path id="路径_409" data-name="路径 409" d="M1235.344,1410.889s99.78-24.743,196.333-3.227" fill="none" stroke="#e48013" stroke-miterlimit="10" stroke-width="1"/>
    </g>
</svg>
