<svg xmlns="http://www.w3.org/2000/svg" width="77.408" height="77.408" viewBox="0 0 77.408 77.408">
    <g id="body_pic3" transform="translate(0.5 0.5)">
        <ellipse id="椭圆_21" data-name="椭圆 21" cx="38.204" cy="38.204" rx="38.204" ry="38.204" transform="translate(0 0)" fill="none" stroke="#969696" stroke-miterlimit="10" stroke-width="1"/>
        <ellipse id="椭圆_22" data-name="椭圆 22" cx="6.222" cy="6.222" rx="6.222" ry="6.222" transform="translate(31.982 4.729)" fill="none" stroke="#febb6f" stroke-miterlimit="10" stroke-width="1.6"/>
        <ellipse id="椭圆_23" data-name="椭圆 23" cx="6.222" cy="6.222" rx="6.222" ry="6.222" transform="translate(31.982 23.227)" fill="none" stroke="#febb6f" stroke-miterlimit="10" stroke-width="1.6"/>
        <ellipse id="椭圆_24" data-name="椭圆 24" cx="6.222" cy="6.222" rx="6.222" ry="6.222" transform="translate(22.089 36.667)" fill="none" stroke="#febb6f" stroke-miterlimit="10" stroke-width="1.6"/>
        <ellipse id="椭圆_25" data-name="椭圆 25" cx="6.222" cy="6.222" rx="6.222" ry="6.222" transform="translate(41.128 36.667)" fill="none" stroke="#febb6f" stroke-miterlimit="10" stroke-width="1.6"/>
        <ellipse id="椭圆_26" data-name="椭圆 26" cx="6.222" cy="6.222" rx="6.222" ry="6.222" transform="translate(18.189 8.258)" fill="none" stroke="#febb6f" stroke-miterlimit="10" stroke-width="1.6"/>
        <ellipse id="椭圆_27" data-name="椭圆 27" cx="6.222" cy="6.222" rx="6.222" ry="6.222" transform="translate(8.009 18.21)" fill="none" stroke="#febb6f" stroke-miterlimit="10" stroke-width="1.6"/>
        <ellipse id="椭圆_28" data-name="椭圆 28" cx="6.222" cy="6.222" rx="6.222" ry="6.222" transform="translate(4.169 31.92)" fill="none" stroke="#febb6f" stroke-miterlimit="10" stroke-width="1.6"/>
        <ellipse id="椭圆_29" data-name="椭圆 29" cx="6.222" cy="6.222" rx="6.222" ry="6.222" transform="translate(7.698 45.712)" fill="none" stroke="#febb6f" stroke-miterlimit="10" stroke-width="1.6"/>
        <ellipse id="椭圆_30" data-name="椭圆 30" cx="6.222" cy="6.222" rx="6.222" ry="6.222" transform="translate(17.65 55.892)" fill="none" stroke="#febb6f" stroke-miterlimit="10" stroke-width="1.6"/>
        <ellipse id="椭圆_31" data-name="椭圆 31" cx="6.222" cy="6.222" rx="6.222" ry="6.222" transform="translate(31.36 59.732)" fill="none" stroke="#febb6f" stroke-miterlimit="10" stroke-width="1.6"/>
        <ellipse id="椭圆_32" data-name="椭圆 32" cx="6.222" cy="6.222" rx="6.222" ry="6.222" transform="translate(45.152 56.203)" fill="none" stroke="#febb6f" stroke-miterlimit="10" stroke-width="1.6"/>
        <ellipse id="椭圆_33" data-name="椭圆 33" cx="6.222" cy="6.222" rx="6.222" ry="6.222" transform="translate(55.332 46.251)" fill="none" stroke="#febb6f" stroke-miterlimit="10" stroke-width="1.6"/>
        <ellipse id="椭圆_34" data-name="椭圆 34" cx="6.222" cy="6.222" rx="6.222" ry="6.222" transform="translate(59.172 32.542)" fill="none" stroke="#febb6f" stroke-miterlimit="10" stroke-width="1.6"/>
        <ellipse id="椭圆_35" data-name="椭圆 35" cx="6.222" cy="6.222" rx="6.222" ry="6.222" transform="translate(55.643 18.749)" fill="none" stroke="#febb6f" stroke-miterlimit="10" stroke-width="1.6"/>
        <ellipse id="椭圆_36" data-name="椭圆 36" cx="6.222" cy="6.222" rx="6.222" ry="6.222" transform="translate(45.691 8.569)" fill="none" stroke="#febb6f" stroke-miterlimit="10" stroke-width="1.6"/>
    </g>
</svg>
