<svg xmlns="http://www.w3.org/2000/svg" width="77.408" height="77.408" viewBox="0 0 77.408 77.408">
    <g id="body_pic4" transform="translate(0.5 0.5)">
        <ellipse id="椭圆_37" data-name="椭圆 37" cx="38.204" cy="38.204" rx="38.204" ry="38.204" transform="translate(0 0)" fill="none" stroke="#969696" stroke-miterlimit="10" stroke-width="1"/>
        <g id="组_153" data-name="组 153" transform="translate(11.036 13.79)">
            <path id="路径_101" data-name="路径 101" d="M598.016,603.3v34.208a2.824,2.824,0,0,1-2.825,2.825H583.2a2.821,2.821,0,0,1-2.825-2.865c.138-8.431,1.615-32.816,13.957-36.862A2.823,2.823,0,0,1,598.016,603.3Z" transform="translate(-580.374 -600.464)" fill="none" stroke="#febb6f" stroke-miterlimit="10" stroke-width="1.6"/>
            <path id="路径_102" data-name="路径 102" d="M619.405,603.3v34.208a2.824,2.824,0,0,0,2.825,2.825h11.993a2.821,2.821,0,0,0,2.825-2.865c-.138-8.431-1.615-32.816-13.957-36.862A2.823,2.823,0,0,0,619.405,603.3Z" transform="translate(-581.966 -600.464)" fill="none" stroke="#febb6f" stroke-miterlimit="10" stroke-width="1.6"/>
            <rect id="矩形_305" data-name="矩形 305" width="9.271" height="9.271" rx="1.255" transform="translate(22.965 17.493)" fill="none" stroke="#febb6f" stroke-miterlimit="10" stroke-width="1.6"/>
            <path id="路径_103" data-name="路径 103" d="M598.016,603.3v34.208a2.824,2.824,0,0,1-2.825,2.825H583.2a2.821,2.821,0,0,1-2.825-2.865c.138-8.431,1.615-32.816,13.957-36.862A2.823,2.823,0,0,1,598.016,603.3Z" transform="translate(-580.374 -600.464)" fill="none" stroke="#febb6f" stroke-miterlimit="10" stroke-width="1.6"/>
        </g>
    </g>
</svg>
