<svg xmlns="http://www.w3.org/2000/svg" width="77.408" height="77.408" viewBox="0 0 77.408 77.408">
    <g id="body_pic5" transform="translate(0.5 0.5)">
        <ellipse id="椭圆_38" data-name="椭圆 38" cx="38.204" cy="38.204" rx="38.204" ry="38.204" transform="translate(0 0)" fill="none" stroke="#969696" stroke-miterlimit="10" stroke-width="1"/>
        <g id="组_155" data-name="组 155" transform="translate(8.096 30.329)">
            <path id="路径_104" data-name="路径 104" d="M687.328,620.266s-3.6.45-5.4-.675-2.411-1.768-4.789-1.768-4.564.771-4.564,7.007,1.8,8.742,11.056,8.742S692.5,628.3,692.5,627.3v-5.656s-.1-3.793-3.793-3.793-5.464,1.382-7.135,1.382" transform="translate(-672.576 -617.823)" fill="none" stroke="#febb6f" stroke-miterlimit="10" stroke-width="1.6"/>
            <path id="路径_105" data-name="路径 105" d="M708.219,620.266s-3.6.45-5.4-.675-2.41-1.768-4.788-1.768-4.564.771-4.564,7.007,1.8,8.742,11.056,8.742,8.871-5.271,8.871-6.267v-5.656s-.1-3.793-3.793-3.793-5.464,1.382-7.134,1.382" transform="translate(-673.429 -617.823)" fill="none" stroke="#febb6f" stroke-miterlimit="10" stroke-width="1.6"/>
            <path id="路径_106" data-name="路径 106" d="M729.329,620.266s-3.6.45-5.4-.675-2.41-1.768-4.788-1.768-4.564.771-4.564,7.007,1.8,8.742,11.056,8.742S734.5,628.3,734.5,627.3v-5.656s-.1-3.793-3.793-3.793-5.464,1.382-7.135,1.382" transform="translate(-674.29 -617.823)" fill="none" stroke="#febb6f" stroke-miterlimit="10" stroke-width="1.6"/>
        </g>
    </g>
</svg>
