<svg xmlns="http://www.w3.org/2000/svg" width="30.035" height="30.035" viewBox="0 0 30.035 30.035">
    <path id="ins" d="M62.948,63.4ZM87.493,79.552a8.4,8.4,0,0,1-16.794,0,8.275,8.275,0,0,1,.158-1.615H65.208V89.1a4.34,4.34,0,0,0,4.341,4.341H88.642A4.341,4.341,0,0,0,92.983,89.1V77.937H87.336a8.432,8.432,0,0,1,.156,1.615Zm1.15-13.887H69.549a4.341,4.341,0,0,0-4.341,4.341v4.7h7.03a8.394,8.394,0,0,1,13.714,0h7.03v-4.7a4.342,4.342,0,0,0-4.341-4.341Zm2.123,5.361a.777.777,0,0,1-.775.775H87.667a.778.778,0,0,1-.775-.775V68.7a.777.777,0,0,1,.775-.775h2.323a.777.777,0,0,1,.775.775v2.325Zm-6.5,8.526A5.167,5.167,0,1,0,79.1,84.719a5.167,5.167,0,0,0,5.167-5.167Z" transform="translate(-62.948 -63.404)" fill="#1e1e1e"/>
</svg>
