<svg xmlns="http://www.w3.org/2000/svg" width="28" height="28" viewBox="0 0 28 28">
    <g id="组_1741" data-name="组 1741" transform="translate(-714 -559)">
        <rect id="矩形_828" data-name="矩形 828" width="28" height="28" rx="2" transform="translate(714 559)" fill="#006a9a"/>
        <path id="路径_1555" data-name="路径 1555" d="M12.385,19.41h4.234v13.6H12.385V19.41ZM14.5,12.648A2.451,2.451,0,1,1,12.049,15.1,2.452,2.452,0,0,1,14.5,12.648m4.77,6.762h4.055v1.859h.058a4.443,4.443,0,0,1,4-2.2c4.28,0,5.072,2.816,5.072,6.479v7.461H28.234V26.4c0-1.579-.031-3.608-2.2-3.608-2.2,0-2.537,1.718-2.537,3.492v6.73H19.273Z" transform="translate(705.951 550.506)" fill="#fff"/>
    </g>
</svg>
