<svg xmlns="http://www.w3.org/2000/svg" width="29.726" height="21.611" viewBox="0 0 29.726 21.611">
    <path id="youtube" d="M68.322,171.433l-1.973-.2a86.635,86.635,0,0,0-17.754,0l-1.892.2a4.567,4.567,0,0,0-4.053,4.607V187.12a4.567,4.567,0,0,0,4.053,4.607l1.973.2a86.631,86.631,0,0,0,17.754,0l1.892-.2a4.567,4.567,0,0,0,4.053-4.607V176.04a4.567,4.567,0,0,0-4.053-4.607Zm-6.756,10.985L56.31,185.93a1.013,1.013,0,0,1-1.5-.838v-7.026a1.013,1.013,0,0,1,1.581-.838l5.256,3.513a1,1,0,0,1,0,1.675Z" transform="translate(-42.65 -170.774)" fill="#c42727"/>
</svg>
