<svg xmlns="http://www.w3.org/2000/svg" width="148.491" height="148.491" viewBox="0 0 148.491 148.491">
    <g id="组_152" data-name="组 152" transform="translate(0.5 0.5)">
        <ellipse id="椭圆_21" data-name="椭圆 21" cx="73.745" cy="73.745" rx="73.745" ry="73.745" transform="translate(0 0)"
                 fill="none" stroke="#969696" stroke-miterlimit="10" stroke-width="1"/>
        <ellipse id="椭圆_22" data-name="椭圆 22" cx="12.011" cy="12.011" rx="12.011" ry="12.011"
                 transform="translate(79.735 11.128)" fill="none" stroke="#febb6f" stroke-miterlimit="10"
                 stroke-width="1.6"/>
        <ellipse id="椭圆_23" data-name="椭圆 23" cx="12.011" cy="12.011" rx="12.011" ry="12.011"
                 transform="translate(61.735 44.836)" fill="none" stroke="#febb6f" stroke-miterlimit="10"
                 stroke-width="1.6"/>
        <ellipse id="椭圆_24" data-name="椭圆 24" cx="12.011" cy="12.011" rx="12.011" ry="12.011"
                 transform="translate(42.638 70.779)" fill="none" stroke="#febb6f" stroke-miterlimit="10"
                 stroke-width="1.6"/>
        <ellipse id="椭圆_25" data-name="椭圆 25" cx="12.011" cy="12.011" rx="12.011" ry="12.011"
                 transform="translate(79.39 70.779)" fill="none" stroke="#febb6f" stroke-miterlimit="10"
                 stroke-width="1.6"/>
        <ellipse id="椭圆_26" data-name="椭圆 26" cx="12.011" cy="12.011" rx="12.011" ry="12.011"
                 transform="translate(43.111 10.94)" fill="none" stroke="#febb6f" stroke-miterlimit="10"
                 stroke-width="1.6"/>
        <ellipse id="椭圆_27" data-name="椭圆 27" cx="12.011" cy="12.011" rx="12.011" ry="12.011"
                 transform="translate(15.46 35.152)" fill="none" stroke="#febb6f" stroke-miterlimit="10"
                 stroke-width="1.6"/>
        <ellipse id="椭圆_28" data-name="椭圆 28" cx="12.011" cy="12.011" rx="12.011" ry="12.011"
                 transform="translate(6.047 70.615)" fill="none" stroke="#febb6f" stroke-miterlimit="10"
                 stroke-width="1.6"/>
        <ellipse id="椭圆_30" data-name="椭圆 30" cx="12.011" cy="12.011" rx="12.011" ry="12.011"
                 transform="translate(27.071 105.89)" fill="none" stroke="#febb6f" stroke-miterlimit="10"
                 stroke-width="1.6"/>
        <ellipse id="椭圆_31" data-name="椭圆 31" cx="12.011" cy="12.011" rx="12.011" ry="12.011"
                 transform="translate(60.534 115.302)" fill="none" stroke="#febb6f" stroke-miterlimit="10"
                 stroke-width="1.6"/>
        <ellipse id="椭圆_32" data-name="椭圆 32" cx="12.011" cy="12.011" rx="12.011" ry="12.011"
                 transform="translate(94.158 105.49)" fill="none" stroke="#febb6f" stroke-miterlimit="10"
                 stroke-width="1.6"/>
        <ellipse id="椭圆_34" data-name="椭圆 34" cx="12.011" cy="12.011" rx="12.011" ry="12.011"
                 transform="translate(116.221 70.816)" fill="none" stroke="#febb6f" stroke-miterlimit="10"
                 stroke-width="1.6"/>
        <ellipse id="椭圆_35" data-name="椭圆 35" cx="12.011" cy="12.011" rx="12.011" ry="12.011"
                 transform="translate(107.409 36.192)" fill="none" stroke="#febb6f" stroke-miterlimit="10"
                 stroke-width="1.6"/>
    </g>
</svg>
