<svg xmlns="http://www.w3.org/2000/svg" width="148.491" height="148.491" viewBox="0 0 148.491 148.491">
    <g id="组_156" data-name="组 156" transform="translate(0.5 0.5)">
        <ellipse id="椭圆_38" data-name="椭圆 38" cx="73.745" cy="73.745" rx="73.745" ry="73.745" transform="translate(0 0)"
                 fill="none" stroke="#969696" stroke-miterlimit="10" stroke-width="1"/>
        <g id="组_155" data-name="组 155" transform="translate(15.628 58.545)">
            <path id="路径_104" data-name="路径 104"
                  d="M701.053,622.539s-6.949.868-10.422-1.3-4.655-3.412-9.245-3.412-8.81,1.489-8.81,13.526,3.474,16.875,21.341,16.875,17.125-10.174,17.125-12.1V625.207s-.187-7.321-7.321-7.321-10.548,2.668-13.774,2.668"
                  transform="translate(-672.576 -617.823)" fill="none" stroke="#febb6f" stroke-miterlimit="10"
                  stroke-width="1.6"/>
            <path id="路径_105" data-name="路径 105"
                  d="M721.944,622.539s-6.949.868-10.424-1.3-4.653-3.412-9.243-3.412-8.81,1.489-8.81,13.526,3.474,16.875,21.341,16.875,17.123-10.174,17.123-12.1V625.207s-.185-7.321-7.321-7.321-10.546,2.668-13.772,2.668"
                  transform="translate(-654.786 -617.823)" fill="none" stroke="#febb6f" stroke-miterlimit="10"
                  stroke-width="1.6"/>
            <path id="路径_106" data-name="路径 106"
                  d="M743.054,622.539s-6.949.868-10.424-1.3-4.653-3.412-9.243-3.412-8.81,1.489-8.81,13.526,3.474,16.875,21.341,16.875,17.123-10.174,17.123-12.1V625.207s-.185-7.321-7.321-7.321-10.546,2.668-13.772,2.668"
                  transform="translate(-636.81 -617.823)" fill="none" stroke="#febb6f" stroke-miterlimit="10"
                  stroke-width="1.6"/>
        </g>
    </g>
</svg>
