<svg xmlns="http://www.w3.org/2000/svg" width="1146.491" height="148.491" viewBox="0 0 1146.491 148.491">
    <line id="直线_34" data-name="直线 34" x2="13" transform="translate(90 30)" fill="none" stroke="#febb6f"
          stroke-width="1.6"/>
    <g id="组_1997" data-name="组 1997" transform="translate(-422.5 -4776.5)">
        <g id="body_pic2" transform="translate(0 2494)">
            <g id="组_151" data-name="组 151" transform="translate(423 2294)">
                <g id="组_150" data-name="组 150" transform="translate(21.558 12.509)">
                    <path id="路径_98" data-name="路径 98"
                          d="M377.737,671.663l25.907,27.081s44.1-42.234,42.722-98.215l-37.777,2.981S414.9,633.491,377.737,671.663Z"
                          transform="translate(-377.737 -598.889)" fill="none" stroke="#febb6f" stroke-miterlimit="10"
                          stroke-width="1.6"/>
                    <path id="路径_99" data-name="路径 99"
                          d="M378.506,670.082s14.631-.465,26.983-27.99,2.446-39.954,2.446-39.954"
                          transform="translate(-377.082 -597.518)" fill="none" stroke="#febb6f" stroke-miterlimit="10"
                          stroke-width="1.6"/>
                    <path id="路径_100" data-name="路径 100"
                          d="M391.729,699.5s17.327-34.355,22.528-45.579,20.16-52.433,20.16-52.433H446.55"
                          transform="translate(-365.822 -599.643)" fill="none" stroke="#febb6f" stroke-miterlimit="10"
                          stroke-width="1.6"/>
                </g>
                <rect id="矩形_302" data-name="矩形 302" width="65.421" height="102.761" transform="translate(102.143 0)"
                      fill="none" stroke="#969696" stroke-miterlimit="10" stroke-width="1"/>
                <rect id="矩形_303" data-name="矩形 303" width="99.058" height="23.607"
                      transform="translate(86.868 102.761)" fill="none" stroke="#969696" stroke-miterlimit="10"
                      stroke-width="1"/>
                <rect id="矩形_304" data-name="矩形 304" width="185.926" height="10.029" transform="translate(0 126.368)"
                      fill="none" stroke="#969696" stroke-miterlimit="10" stroke-width="1"/>
            </g>
            <g id="组_152" data-name="组 152" transform="translate(788 2283)">
                <ellipse id="椭圆_21" data-name="椭圆 21" cx="73.745" cy="73.745" rx="73.745" ry="73.745"
                         transform="translate(0 0)" fill="none" stroke="#969696" stroke-miterlimit="10"
                         stroke-width="1"/>
                <ellipse id="椭圆_22" data-name="椭圆 22" cx="12.011" cy="12.011" rx="12.011" ry="12.011"
                         transform="translate(79.735 11.128)" fill="none" stroke="#febb6f" stroke-miterlimit="10"
                         stroke-width="1.6"/>
                <ellipse id="椭圆_23" data-name="椭圆 23" cx="12.011" cy="12.011" rx="12.011" ry="12.011"
                         transform="translate(61.735 44.836)" fill="none" stroke="#febb6f" stroke-miterlimit="10"
                         stroke-width="1.6"/>
                <ellipse id="椭圆_24" data-name="椭圆 24" cx="12.011" cy="12.011" rx="12.011" ry="12.011"
                         transform="translate(42.638 70.779)" fill="none" stroke="#febb6f" stroke-miterlimit="10"
                         stroke-width="1.6"/>
                <ellipse id="椭圆_25" data-name="椭圆 25" cx="12.011" cy="12.011" rx="12.011" ry="12.011"
                         transform="translate(79.39 70.779)" fill="none" stroke="#febb6f" stroke-miterlimit="10"
                         stroke-width="1.6"/>
                <ellipse id="椭圆_26" data-name="椭圆 26" cx="12.011" cy="12.011" rx="12.011" ry="12.011"
                         transform="translate(43.111 10.94)" fill="none" stroke="#febb6f" stroke-miterlimit="10"
                         stroke-width="1.6"/>
                <ellipse id="椭圆_27" data-name="椭圆 27" cx="12.011" cy="12.011" rx="12.011" ry="12.011"
                         transform="translate(15.46 35.152)" fill="none" stroke="#febb6f" stroke-miterlimit="10"
                         stroke-width="1.6"/>
                <ellipse id="椭圆_28" data-name="椭圆 28" cx="12.011" cy="12.011" rx="12.011" ry="12.011"
                         transform="translate(6.047 70.615)" fill="none" stroke="#febb6f" stroke-miterlimit="10"
                         stroke-width="1.6"/>
                <ellipse id="椭圆_30" data-name="椭圆 30" cx="12.011" cy="12.011" rx="12.011" ry="12.011"
                         transform="translate(27.071 105.89)" fill="none" stroke="#febb6f" stroke-miterlimit="10"
                         stroke-width="1.6"/>
                <ellipse id="椭圆_31" data-name="椭圆 31" cx="12.011" cy="12.011" rx="12.011" ry="12.011"
                         transform="translate(60.534 115.302)" fill="none" stroke="#febb6f" stroke-miterlimit="10"
                         stroke-width="1.6"/>
                <ellipse id="椭圆_32" data-name="椭圆 32" cx="12.011" cy="12.011" rx="12.011" ry="12.011"
                         transform="translate(94.158 105.49)" fill="none" stroke="#febb6f" stroke-miterlimit="10"
                         stroke-width="1.6"/>
                <ellipse id="椭圆_34" data-name="椭圆 34" cx="12.011" cy="12.011" rx="12.011" ry="12.011"
                         transform="translate(116.221 70.816)" fill="none" stroke="#febb6f" stroke-miterlimit="10"
                         stroke-width="1.6"/>
                <ellipse id="椭圆_35" data-name="椭圆 35" cx="12.011" cy="12.011" rx="12.011" ry="12.011"
                         transform="translate(107.409 36.192)" fill="none" stroke="#febb6f" stroke-miterlimit="10"
                         stroke-width="1.6"/>
            </g>
            <g id="组_154" data-name="组 154" transform="translate(1094 2283)">
                <ellipse id="椭圆_37" data-name="椭圆 37" cx="73.745" cy="73.745" rx="73.745" ry="73.745"
                         transform="translate(0 0)" fill="none" stroke="#969696" stroke-miterlimit="10"
                         stroke-width="1"/>
                <g id="组_153" data-name="组 153" transform="translate(21.304 26.619)">
                    <path id="路径_101" data-name="路径 101"
                          d="M614.43,605.936v66.031a5.452,5.452,0,0,1-5.453,5.453h-23.15a5.446,5.446,0,0,1-5.453-5.531c.267-16.275,3.118-63.345,26.942-71.155A5.45,5.45,0,0,1,614.43,605.936Z"
                          transform="translate(-580.374 -600.464)" fill="none" stroke="#febb6f" stroke-miterlimit="10"
                          stroke-width="1.6"/>
                    <path id="路径_102" data-name="路径 102"
                          d="M619.405,605.936v66.031a5.452,5.452,0,0,0,5.453,5.453h23.15a5.446,5.446,0,0,0,5.453-5.531c-.266-16.275-3.118-63.345-26.942-71.155A5.45,5.45,0,0,0,619.405,605.936Z"
                          transform="translate(-547.137 -600.464)" fill="none" stroke="#febb6f" stroke-miterlimit="10"
                          stroke-width="1.6"/>
                    <rect id="矩形_305" data-name="矩形 305" width="17.895" height="17.895" rx="1.255"
                          transform="translate(44.329 33.767)" fill="none" stroke="#febb6f" stroke-miterlimit="10"
                          stroke-width="1.6"/>
                    <path id="路径_103" data-name="路径 103"
                          d="M614.43,605.936v66.031a5.452,5.452,0,0,1-5.453,5.453h-23.15a5.446,5.446,0,0,1-5.453-5.531c.267-16.275,3.118-63.345,26.942-71.155A5.45,5.45,0,0,1,614.43,605.936Z"
                          transform="translate(-580.374 -600.464)" fill="none" stroke="#febb6f" stroke-miterlimit="10"
                          stroke-width="1.6"/>
                </g>
            </g>
            <g id="组_156" data-name="组 156" transform="translate(1421 2283)">
                <ellipse id="椭圆_38" data-name="椭圆 38" cx="73.745" cy="73.745" rx="73.745" ry="73.745"
                         transform="translate(0 0)" fill="none" stroke="#969696" stroke-miterlimit="10"
                         stroke-width="1"/>
                <g id="组_155" data-name="组 155" transform="translate(15.628 58.545)">
                    <path id="路径_104" data-name="路径 104"
                          d="M701.053,622.539s-6.949.868-10.422-1.3-4.655-3.412-9.245-3.412-8.81,1.489-8.81,13.526,3.474,16.875,21.341,16.875,17.125-10.174,17.125-12.1V625.207s-.187-7.321-7.321-7.321-10.548,2.668-13.774,2.668"
                          transform="translate(-672.576 -617.823)" fill="none" stroke="#febb6f" stroke-miterlimit="10"
                          stroke-width="1.6"/>
                    <path id="路径_105" data-name="路径 105"
                          d="M721.944,622.539s-6.949.868-10.424-1.3-4.653-3.412-9.243-3.412-8.81,1.489-8.81,13.526,3.474,16.875,21.341,16.875,17.123-10.174,17.123-12.1V625.207s-.185-7.321-7.321-7.321-10.546,2.668-13.772,2.668"
                          transform="translate(-654.786 -617.823)" fill="none" stroke="#febb6f" stroke-miterlimit="10"
                          stroke-width="1.6"/>
                    <path id="路径_106" data-name="路径 106"
                          d="M743.054,622.539s-6.949.868-10.424-1.3-4.653-3.412-9.243-3.412-8.81,1.489-8.81,13.526,3.474,16.875,21.341,16.875,17.123-10.174,17.123-12.1V625.207s-.185-7.321-7.321-7.321-10.546,2.668-13.772,2.668"
                          transform="translate(-636.81 -617.823)" fill="none" stroke="#febb6f" stroke-miterlimit="10"
                          stroke-width="1.6"/>
                </g>
            </g>
        </g>
    </g>
</svg>
